<svg xmlns="http://www.w3.org/2000/svg" viewBox="0 0 256 256"><style>.st0{fill:url(#SVGID_1_);} .st1{fill:#FFFFFF;}</style><radialGradient id="SVGID_1_" gradientUnits="userSpaceOnUse" cy="128" cx="128" r="271.63"><stop stop-color="#9A0800" offset="0"/><stop stop-color="#970800" offset=".187"/><stop stop-color="#8C0700" offset=".347"/><stop stop-color="#7A0600" offset=".499"/><stop stop-color="#610500" offset=".644"/><stop stop-color="#410300" offset=".785"/><stop stop-color="#1A0100" offset=".921"/><stop offset="1"/></radialGradient><path class="st0" d="M237.6 256H18.4C8.2 256 0 247.8 0 237.6V18.4C0 8.2 8.2 0 18.4 0h219.2C247.8 0 256 8.2 256 18.4v219.2c0 10.2-8.2 18.4-18.4 18.4z"/><path fill="#fff" d="M81.9 43.1c-33.8 0-61.1 27.4-61.1 61.1s27.4 61.1 61.1 61.1c1 0 2.1 0 3.1-.1-2.5 5.7-3.9 12-3.9 18.7 0 5 1.7 12.6 1.5 11.7 4 .9 8.9 1.9 14.3 2.8l.5-15.5 4.9 16.4s16.1 2 25.9 2c17.3 0 34.6-3.2 45.4-5.6 1-3.8 1.5-7.7 1.5-11.7 0-6.6-1.4-13-3.9-18.7 1 .1 2.1.1 3.1.1 33.7-.1 61.1-27.4 61.1-61.2 0-33.8-27.4-61.1-61.1-61.1-18.5 0-35 8.2-46.2 21.2-11.2-12.9-27.8-21.2-46.2-21.2zM48.5 81.2l68.6 16.1c-2.2 17.4-17.1 30.8-35.1 30.8-19.6 0-35.4-15.9-35.4-35.4 0-4 .7-7.9 1.9-11.5zm159.4 0c1.2 3.6 1.9 7.5 1.9 11.5 0 19.6-15.9 35.4-35.4 35.4-18 0-32.8-13.4-35.1-30.8l68.6-16.1zM63 91.7v1c0 10.5 8.5 19 19 19 7.8 0 14.5-4.7 17.4-11.5L63 91.7zm130.4 0l-36.4 8.5c2.9 6.7 9.6 11.5 17.4 11.5 10.5 0 19-8.5 19-19v-1zm-67.2 52.9L103.8 158l-3.3-8.6 25.7-4.8zm4.1.1l25.7 4.8-3.3 8.5-22.4-13.3zm-43.8 61.2c7.9 14.9 23.5 25 41.5 25s33.6-10.1 41.5-25c-11.1 2.3-26.1 4.5-41.4 4.5-15.4 0-30.5-2.3-41.6-4.5z"/></svg>