<svg xmlns:rdf="http://www.w3.org/1999/02/22-rdf-syntax-ns#" style="enable-background:new 0 0 256 256" xmlns="http://www.w3.org/2000/svg" xml:space="preserve" viewBox="0 0 256 256" version="1.1" y="0px" x="0px" xmlns:cc="http://creativecommons.org/ns#" xmlns:dc="http://purl.org/dc/elements/1.1/"><style type="text/css">
	.st0{fill:url(#SVGID_1_);}
	.st1{fill:#FFFFFF;}
</style><radialGradient id="SVGID_1_" gradientUnits="userSpaceOnUse" cy="128" cx="128" r="271.63"><stop stop-color="#9A0800" offset="0"/><stop stop-color="#970800" offset=".1867"/><stop stop-color="#8C0700" offset=".3474"/><stop stop-color="#7A0600" offset=".4986"/><stop stop-color="#610500" offset=".6439"/><stop stop-color="#410300" offset=".7852"/><stop stop-color="#1A0100" offset=".9214"/><stop offset="1"/></radialGradient><path class="st0" d="m237.6 256h-219.2c-10.2 0-18.4-8.2-18.4-18.4v-219.2c0-10.2 8.2-18.4 18.4-18.4h219.2c10.2 0 18.4 8.2 18.4 18.4v219.2c0 10.2-8.2 18.4-18.4 18.4z"/><path fill="#fff" d="m81.9 43.1c-33.8 0-61.099 27.399-61.099 61.1 0 33.7 27.399 61.1 61.099 61.1 1 0 2.1 0 3.1-0.1-2.5 5.7-3.9 12-3.9 18.7 0 5 1.7 12.6 1.5 11.7 4 0.9 8.9 1.9 14.3 2.8l0.5-15.5 4.9 16.4s16.1 2 25.9 2c17.3 0 34.6-3.2 45.4-5.6 1-3.8 1.5-7.7 1.5-11.7 0-6.6-1.4-13-3.9-18.7 1 0.1 2.1 0.1 3.1 0.1 33.7-0.1 61.1-27.4 61.1-61.2 0-33.801-27.4-61.1-61.1-61.1-18.5 0-35 8.201-46.2 21.201-11.2-12.9-27.8-21.201-46.2-21.201zm-33.4 38.099l68.6 16.102c-2.2 17.399-17.1 30.799-35.1 30.799-19.6 0-35.4-15.9-35.4-35.401 0-4 0.7-7.9 1.9-11.5zm159.4 0c1.2 3.6 1.9 7.5 1.9 11.5 0 19.601-15.9 35.401-35.4 35.401-18 0-32.8-13.4-35.1-30.799l68.6-16.102zm-144.9 10.5v1c0 10.501 8.5 19.001 19 19.001 7.8 0 14.5-4.7 17.4-11.5l-36.4-8.501zm130.4 0l-36.4 8.501c2.9 6.7 9.6 11.5 17.4 11.5 10.5 0 19-8.5 19-19.001v-1zm-67.2 52.901l-22.4 13.4-3.3-8.6 25.7-4.8zm4.1 0.1l25.7 4.8-3.3 8.5-22.4-13.3zm-43.8 61.2c7.9 14.9 23.5 25 41.5 25s33.6-10.1 41.5-25c-11.1 2.3-26.1 4.5-41.4 4.5-15.4 0-30.5-2.3-41.6-4.5z"/></svg>
